<svg xmlns="http://www.w3.org/2000/svg" xmlns:xlink="http://www.w3.org/1999/xlink" viewBox="0 0 65 65"><defs><path id="a" d="M0 0h7.516v7.505H0z"/><path id="c" d="M0 0h7.512v7.508H0z"/><path id="e" d="M0 0h3.196v13.827H0z"/></defs><g fill="none"><rect width="64" height="64" x=".5" y=".5" fill="#FAFAFA" stroke="#D8D8DA" rx="16"/><g fill-rule="evenodd"><path fill="#3884C4" d="M32.487 34.075h15.385c.09 0 .182-.003.273.002a.72.72 0 0 1 .664.577c.016.078.023.159.023.238l.001 5.1c0 .238-.061.448-.237.613a.68.68 0 0 1-.707.163c-.264-.083-.427-.27-.493-.545-.023-.098-.023-.198-.023-.298v-4.1c0-.301.031-.266-.261-.266H33.467c-.296 0-.261-.037-.261.264-.002 1.38-.001 2.76 0 4.14 0 .114-.002.226-.039.336a.721.721 0 0 1-1.411-.203v-4.34c0-.203.01-.197-.193-.197H17.841c-.29 0-.266-.035-.266.265v4.08l-.001.2a.724.724 0 0 1-.637.695.723.723 0 0 1-.784-.547 1.23 1.23 0 0 1-.028-.318v-4.6c0-.173-.004-.347.001-.52.01-.353.224-.63.549-.716a.814.814 0 0 1 .174-.022c.084-.003.169-.001.254-.001h15.384"/><path fill="#E77F5C" d="M28.807 32.667H27.068c-.067-.004-.085-.028-.062-.088.05-.13.102-.26.154-.39.434-1.07.87-2.139 1.3-3.211a.356.356 0 0 1 .21-.214c1.259-.53 2.516-1.062 3.772-1.598a.366.366 0 0 1 .315-.003c1.243.531 2.489 1.057 3.734 1.584.018.008.035.017.054.022.102.03.159.1.199.201.185.47.376.936.565 1.404l.822 2.03c.115.284.123.264-.165.263h-3.225c-.235 0-.195.015-.28-.192-.111-.27-.221-.54-.326-.813a.352.352 0 0 0-.208-.22c-.398-.163-.795-.333-1.19-.503a.29.29 0 0 0-.245-.007c-.42.18-.84.359-1.263.534-.074.03-.11.084-.139.155-.115.29-.232.58-.351.868-.077.186-.039.179-.27.178h-1.662M32.482 47.885c.208 0 .417-.002.625.001.078.001.136-.02.183-.088.068-.097.145-.189.218-.282.175-.224.347-.45.527-.67a.321.321 0 0 0 .072-.308 35.571 35.571 0 0 1-.262-1.166.264.264 0 0 0-.158-.207c-.359-.172-.717-.348-1.072-.528a.278.278 0 0 0-.277.002c-.35.178-.701.352-1.055.52a.285.285 0 0 0-.174.219 53.35 53.35 0 0 1-.268 1.206.237.237 0 0 0 .05.22c.257.328.512.655.766.985.053.068.113.1.2.098.208-.005.417-.002.625-.002m-.006 2.112c-.489 0-.978-.005-1.466.003a.393.393 0 0 1-.348-.174c-.604-.785-1.216-1.565-1.825-2.347l-.061-.078a.276.276 0 0 1-.046-.244c.079-.336.15-.675.226-1.012l.428-1.928c.059-.267.058-.269.308-.392.868-.428 1.738-.853 2.604-1.285a.373.373 0 0 1 .369.002c.807.403 1.618.8 2.427 1.2.077.037.152.077.23.109a.361.361 0 0 1 .235.292c.066.332.147.662.22.993.14.623.278 1.246.416 1.87.01.045.015.092.029.136.036.113.004.206-.066.296-.262.332-.521.666-.781 1l-1.01 1.297c-.05.063-.1.124-.152.183a.218.218 0 0 1-.174.078H32.476"/><g transform="translate(13 42.494)"><mask id="b" fill="#fff"><use xlink:href="#a"/></mask><path fill="#E77F5C" d="m3.748 5.391.644.001c.07 0 .124-.017.17-.076.262-.34.526-.678.79-1.016a.215.215 0 0 0 .044-.201c-.097-.414-.189-.829-.276-1.245a.23.23 0 0 0-.139-.176 84.66 84.66 0 0 1-1.09-.537.257.257 0 0 0-.259-.001c-.156.082-.316.156-.475.234-.199.098-.396.202-.598.293a.266.266 0 0 0-.17.222c0 .006-.003.013-.004.02-.086.388-.167.779-.26 1.167a.254.254 0 0 0 .05.238c.253.322.505.644.753.97a.256.256 0 0 0 .234.11c.195-.007.39-.002.586-.003m.013 2.112H2.392c-.039 0-.078-.003-.117 0-.136.013-.232-.04-.317-.152-.275-.364-.56-.72-.84-1.08L.108 4.974.06 4.91a.274.274 0 0 1-.05-.243c.068-.285.128-.572.191-.857l.464-2.084c.06-.271.058-.272.305-.394C1.837.905 2.707.481 3.573.048a.389.389 0 0 1 .386.006c.819.41 1.642.813 2.463 1.217.07.035.14.072.212.102.114.046.173.13.198.252.048.234.102.468.155.701l.503 2.259c.003.013.004.026.008.039.04.125.012.23-.07.332-.212.262-.417.53-.624.796L5.66 7.222l-.136.17a.275.275 0 0 1-.238.112c-.202-.004-.404-.001-.606-.001h-.918" mask="url(#b)"/></g><g transform="translate(44.25 42.492)"><mask id="d" fill="#fff"><use xlink:href="#c"/></mask><path fill="#E77F5C" d="M3.756 5.393c.208 0 .416-.003.625.002a.223.223 0 0 0 .199-.1c.155-.205.315-.406.473-.61l.293-.374c.053-.066.075-.13.05-.22-.041-.14-.065-.285-.097-.427-.06-.266-.12-.532-.177-.798-.018-.085-.053-.143-.133-.181-.377-.182-.751-.368-1.126-.554a.214.214 0 0 0-.205-.002c-.38.189-.761.377-1.143.563a.195.195 0 0 0-.113.15c-.046.22-.1.44-.149.66-.046.208-.088.417-.137.623a.161.161 0 0 0 .03.149l.059.08c.243.312.488.623.728.938a.24.24 0 0 0 .217.102c.202-.004.404-.001.606-.001m-.014 2.111c-.482 0-.964-.005-1.446.004a.394.394 0 0 1-.35-.17c-.33-.43-.666-.856-1-1.283l-.839-1.08-.05-.062A.269.269 0 0 1 .01 4.67c.062-.251.113-.506.169-.76.168-.752.34-1.504.502-2.258a.39.39 0 0 1 .232-.295C1.8.925 2.687.49 3.572.05A.373.373 0 0 1 3.94.047c.755.378 1.513.75 2.27 1.122.14.07.28.14.423.206.11.05.17.127.197.251.218 1.001.44 2 .669 3 .03.132.007.228-.073.33-.501.64-1 1.282-1.498 1.923-.122.156-.25.308-.365.47a.348.348 0 0 1-.316.157c-.501-.005-1.003-.002-1.505-.002" mask="url(#d)"/></g><path fill="#3884C4" d="M27.158 30.218c-.3-.225-.581-.47-.879-.707l.138-.189c.015-.021.035-.043.018-.07-.016-.027-.045-.022-.07-.022-.575.004-1.082-.207-1.552-.526a6.085 6.085 0 0 1-1.183-1.07c-.575-.662-1.143-1.331-1.72-1.992a17.718 17.718 0 0 0-1.507-1.54c-.024-.022-.05-.044-.069-.07a.062.062 0 0 1-.004-.054c.02-.035.046-.064.068-.098.03-.046.025-.069-.027-.09-.23-.091-.462-.18-.692-.273a14.085 14.085 0 0 1-1.53-.709 4.018 4.018 0 0 1-.593-.384 1.443 1.443 0 0 1-.508-.808 1.092 1.092 0 0 1 .012-.554c.143-.515.463-.854.97-.998a1.04 1.04 0 0 1 .504-.007c.274.058.514.183.72.377a6.6 6.6 0 0 1 .65.72c.399.502.76 1.033 1.109 1.572.039.06.068.129.127.174.072-.026.088-.116.164-.146.03.02.064.04.095.063.635.468 1.306.878 1.992 1.262.65.365 1.307.72 1.96 1.08.385.213.756.448 1.098.727.312.255.596.538.818.88.171.264.301.545.356.859.004.026.008.053.044.072.083-.056.119-.166.216-.225.211.156.41.327.612.494.013.011.017.035.027.055-.118.078-.25.117-.375.172-.197.088-.16.044-.246.254-.204.497-.403.997-.606 1.495-.037.09-.06.19-.137.276M38.034 30.194c-.056-.048-.07-.123-.097-.188l-.628-1.55c-.012-.032-.027-.062-.037-.093a.202.202 0 0 0-.132-.136c-.11-.042-.217-.09-.325-.137-.053-.022-.11-.037-.156-.083.01-.017.016-.038.029-.05.181-.151.363-.303.546-.453.062-.05.08-.048.131.01.052.058.1.118.147.173.034-.012.035-.032.038-.05.1-.552.382-1 .757-1.394a5.37 5.37 0 0 1 .795-.677c.348-.248.722-.452 1.094-.659.766-.426 1.536-.848 2.284-1.31.413-.254.818-.521 1.208-.812l.138-.1c.02.006.034.006.044.013.047.033.068.118.124.115.069-.004.085-.09.12-.144.35-.546.708-1.086 1.106-1.598.203-.261.419-.51.658-.738.227-.215.494-.34.799-.39.165-.028.325-.01.482.038.583.179.967.764.947 1.323a1.167 1.167 0 0 1-.093.427c-.104.241-.252.45-.46.61a5.48 5.48 0 0 1-.801.497 17.87 17.87 0 0 1-1.7.762c-.09.036-.181.072-.272.11-.05.022-.054.044-.025.093.014.023.032.042.045.065.033.055.03.07-.018.12l-.03.026c-.688.635-1.314 1.332-1.92 2.048-.418.493-.83.993-1.249 1.485a6.466 6.466 0 0 1-1.04.997c-.343.257-.71.47-1.127.58a2.017 2.017 0 0 1-.54.074c-.043-.001-.09-.016-.131.016-.007.054.037.08.06.117.022.033.05.062.074.094.031.043.03.066-.012.1-.263.219-.527.436-.792.653-.009.008-.023.01-.041.016"/><g transform="translate(31.023 13)"><mask id="f" fill="#fff"><use xlink:href="#e"/></mask><path fill="#3884C4" d="m2.525 12.753.268.008c.066.003.086.02.087.08v.97c-.053.032-.087.008-.123-.007-.349-.148-.698-.293-1.046-.445a.295.295 0 0 0-.26-.001c-.322.143-.648.277-.973.413-.047.02-.095.034-.136.049-.032-.03-.029-.057-.03-.083v-.84c0-.02 0-.04.002-.06.001-.047.025-.074.071-.075.06-.002.118 0 .176-.003.024 0 .052.008.067-.021.008-.032-.015-.05-.031-.069-.282-.339-.44-.737-.52-1.168a5.075 5.075 0 0 1-.058-1.333c.04-.513.139-1.016.23-1.52.144-.805.292-1.61.402-2.42.062-.463.12-.925.134-1.392 0-.013 0-.027.003-.04.01-.072.003-.154.035-.214s.124-.006.183-.047c.024-.068-.014-.128-.033-.189a24.52 24.52 0 0 1-.446-1.572 9.288 9.288 0 0 1-.206-1.118A1.736 1.736 0 0 1 .403.83C.551.436.82.18 1.215.058a1.3 1.3 0 0 1 .862.033c.322.122.549.349.687.67.13.303.141.618.103.94-.077.651-.244 1.28-.422 1.907-.074.262-.16.521-.239.782a.922.922 0 0 0-.026.116c-.004.022.014.034.032.043.005.003.013.002.02.003.044.006.099-.002.13.022.049.038.039.109.04.167.013.373.05.744.095 1.114.04.324.086.647.136.969.13.842.29 1.678.438 2.516.086.486.138.976.122 1.471a4.25 4.25 0 0 1-.088.753c-.092.43-.257.824-.58 1.19" mask="url(#f)"/></g><path fill="#E77F5C" d="M31.025 17.173c-.005.03-.005.05-.011.069-.062.2-.058.407-.073.613-.017.226-.035.451-.049.677a.277.277 0 0 1-.173.259c-1.322.646-2.642 1.297-3.962 1.948l-1.777.878-2.042 1.006c-.023.011-.047.021-.07.034-.058.033-.11.024-.165-.012-.211-.144-.424-.285-.636-.43-.086-.059-.169-.124-.255-.184-.054-.037-.107-.085-.167-.101a.398.398 0 0 1-.248-.21c-.07-.125-.186-.22-.218-.369.107-.091.24-.13.362-.19.99-.492 1.981-.981 2.973-1.47l3.151-1.552 3.01-1.483.035-.017c.139-.066.145-.063.188.082l.095.326c.013.044.023.09.032.126M34.442 16.6c.026.01.068.028.108.048l1.302.643a14901.247 14901.247 0 0 0 6.653 3.278l1.32.649c.03.014.059.03.087.045.033.02.045.047.023.082a5.772 5.772 0 0 1-.065.1c-.04.06-.085.119-.12.182a.481.481 0 0 1-.273.24c-.078.027-.144.09-.214.138-.263.185-.527.368-.787.558-.09.066-.165.067-.266.016-.837-.418-1.676-.83-2.515-1.243-1.091-.538-2.182-1.077-3.274-1.614-.627-.31-1.253-.622-1.885-.923-.133-.064-.181-.151-.19-.29-.02-.345-.048-.69-.074-1.036-.004-.053-.006-.109-.024-.157a.405.405 0 0 1 .005-.291c.043-.126.076-.255.115-.382.008-.024.023-.048.074-.044M47.12 32.667h-.878c-.054 0-.083-.026-.095-.08-.033-.149-.07-.297-.104-.446l-.503-2.257-.76-3.425c-.068-.305-.133-.61-.205-.915-.018-.075-.004-.124.048-.176.246-.248.487-.5.75-.73a.816.816 0 0 0 .195-.221.309.309 0 0 1 .18-.143c.109-.042.216-.09.325-.135.109-.044.125-.036.15.072l.187.837c.17.759.34 1.517.508 2.276l.76 3.425.398 1.79c.006.026.017.053.015.078-.001.015-.02.04-.034.041a.842.842 0 0 1-.136.01h-.8M18.1 32.667h-.878c-.063-.004-.081-.026-.067-.09a23430.366 23430.366 0 0 0 1.115-5l.71-3.19.004-.02c.036-.115.026-.173.184-.098.04.02.084.034.127.05.137.048.257.109.34.247.059.099.162.172.25.25.242.213.465.446.695.672.066.064.075.126.055.214-.2.881-.398 1.763-.595 2.645-.252 1.128-.502 2.257-.753 3.386-.056.253-.11.506-.167.76-.008.038-.02.076-.03.115-.01.035-.035.055-.071.057a3.262 3.262 0 0 1-.137.002h-.781"/><path fill="#FFF" d="M32.482 47.885c-.208 0-.417-.003-.625.002a.226.226 0 0 1-.2-.098c-.254-.33-.51-.657-.766-.985a.237.237 0 0 1-.05-.22c.095-.4.183-.803.268-1.206a.285.285 0 0 1 .174-.22c.354-.167.705-.341 1.055-.519a.278.278 0 0 1 .277-.002c.355.18.713.356 1.072.528a.264.264 0 0 1 .158.207c.08.39.168.78.262 1.166a.321.321 0 0 1-.072.309c-.18.219-.352.445-.527.669-.073.093-.15.185-.218.282-.047.067-.105.09-.183.088-.208-.003-.417 0-.625 0M16.748 47.885c-.195 0-.39-.004-.586.002a.256.256 0 0 1-.234-.11c-.248-.325-.5-.647-.753-.969a.254.254 0 0 1-.05-.238c.093-.388.174-.779.26-1.168l.005-.02a.266.266 0 0 1 .169-.221c.202-.091.4-.195.598-.294.159-.077.32-.15.475-.234a.257.257 0 0 1 .259.002c.362.182.726.36 1.09.537.076.037.12.086.139.176.087.416.18.831.276 1.245a.215.215 0 0 1-.043.201c-.265.338-.53.676-.791 1.016-.046.06-.1.077-.17.076-.214-.002-.43 0-.644 0M48.006 47.885c-.202 0-.404-.003-.606.002a.24.24 0 0 1-.217-.102c-.24-.316-.485-.626-.728-.94l-.06-.079a.161.161 0 0 1-.03-.148c.05-.207.092-.416.138-.623.05-.22.103-.44.149-.661a.195.195 0 0 1 .113-.15c.382-.186.763-.374 1.143-.563a.214.214 0 0 1 .205.002c.375.187.75.372 1.126.554.08.039.115.097.133.181.056.267.118.532.177.798.032.143.056.288.097.428.025.089.003.154-.05.22-.098.123-.195.249-.292.374-.159.203-.319.405-.474.61a.223.223 0 0 1-.2.099c-.208-.005-.416-.002-.624-.002"/></g></g></svg>